<svg width="300" height="300" viewBox="0 0 300 300" fill="none" xmlns="http://www.w3.org/2000/svg">
<circle cx="150" cy="150" r="62" fill="#C7ACFB"/>
<path d="M132.672 180.084C133.27 181.922 135.246 182.926 137.084 182.328L167.036 172.576C168.874 171.978 169.879 170.003 169.281 168.164C168.682 166.326 166.707 165.322 164.869 165.92L138.244 174.588L129.576 147.964C128.978 146.126 127.003 145.121 125.164 145.719C123.326 146.318 122.322 148.293 122.92 150.131L132.672 180.084ZM161.881 120.413L132.881 177.413L139.119 180.587L168.119 123.587L161.881 120.413Z" fill="white"/>
<rect x="1.5" y="1.5" width="297" height="297" rx="148.5" stroke="white" stroke-width="3"/>
</svg>
