<svg width="300" height="300" viewBox="0 0 300 300" fill="none" xmlns="http://www.w3.org/2000/svg">
<rect x="1.5" y="1.5" width="297" height="297" rx="148.5" stroke="white" stroke-width="3"/>
<path d="M145.71 285.894L143.28 285.698L142.662 279.174C142.639 278.942 142.608 278.558 142.567 278.022C142.526 277.496 142.492 277.018 142.464 276.587C142.424 276.166 142.396 275.808 142.378 275.514L142.3 275.508C141.774 277.493 141.459 278.68 141.354 279.068L139.542 285.396L137.237 285.21L136.433 278.671C136.39 278.291 136.329 277.628 136.248 276.681C136.158 275.733 136.104 275.175 136.086 275.006L136.008 275C135.929 275.328 135.782 275.917 135.567 276.767C135.352 277.627 135.204 278.227 135.124 278.565L133.499 284.908L131.054 284.711L134.87 272.4L137.502 272.612L138.236 279.052C138.438 281.085 138.549 282.233 138.569 282.496L138.647 282.502C138.745 282.061 138.907 281.415 139.133 280.566C139.357 279.727 139.484 279.257 139.513 279.155L141.286 272.918L143.918 273.13L145.71 285.894Z" fill="white"/>
<path d="M120.384 274.578L117.032 273.752L117.216 276.855C117.254 277.572 117.295 278.451 117.339 279.492L117.43 279.515C117.583 279.241 117.814 278.848 118.123 278.334C118.422 277.817 118.636 277.452 118.764 277.236L120.384 274.578ZM125.439 270.851L118.059 281.987L115.632 281.389L114.273 268.099L116.67 268.69L116.885 271.801L121.406 272.915L123.042 270.261L125.439 270.851Z" fill="white"/>
<path d="M102.162 263.547L97.232 275.119L95.0902 274.206L100.02 262.635L102.162 263.547Z" fill="white"/>
<path d="M86.6616 257.714L76.5482 261.838L81.4741 264.953L80.4051 266.643L73.0361 261.983L73.9631 260.517L84.073 256.428L78.5529 252.938L79.6135 251.261L87.5635 256.288L86.6616 257.714Z" fill="white"/>
<path d="M49.1006 241.077L47.559 239.188L51.8362 234.224C51.9874 234.046 52.2424 233.758 52.6012 233.357C52.9519 232.963 53.2729 232.607 53.5642 232.288C53.8409 231.968 54.079 231.7 54.2785 231.483L54.2291 231.423C52.4332 232.418 51.3589 233.013 51.0061 233.207L45.1873 236.284L43.7248 234.492L47.8834 229.382C48.1278 229.089 48.5637 228.585 49.191 227.871C49.8118 227.149 50.1769 226.723 50.2862 226.594L50.2368 226.533C49.9457 226.703 49.4191 227.006 48.6572 227.439C47.8872 227.88 47.3526 228.189 47.0534 228.366L41.3531 231.588L39.8017 229.687L51.3235 223.911L52.9935 225.956L48.8581 230.947C47.5314 232.501 46.7804 233.376 46.605 233.573L46.6544 233.633C47.0409 233.399 47.6184 233.068 48.3869 232.643C49.1474 232.223 49.5745 231.989 49.6684 231.939L55.3949 228.898L57.0649 230.943L49.1006 241.077Z" fill="white"/>
<path d="M39.7178 214.973L37.9912 211.983L35.8812 214.266C35.3899 214.79 34.7842 215.428 34.064 216.181L34.1109 216.262C34.4142 216.183 34.8582 216.077 35.4429 215.944C36.0224 215.802 36.4341 215.703 36.678 215.646L39.7178 214.973ZM45.9069 216.037L32.7639 218.429L31.5139 216.264L40.1569 206.078L41.3913 208.216L39.2968 210.526L41.6249 214.558L44.6725 213.899L45.9069 216.037Z" fill="white"/>
<path d="M35.0507 194.19L23.29 198.651L22.4644 196.474L34.2252 192.014L35.0507 194.19Z" fill="white"/>
<path d="M28.5197 178.97L18.5398 174.533L19.7056 180.243L17.746 180.643L16.002 172.101L17.7013 171.754L27.6537 176.213L26.3473 169.813L28.2916 169.416L30.1731 178.633L28.5197 178.97Z" fill="white"/>
<path d="M14.4994 140.356L14.7932 137.936L21.3367 137.582C21.5692 137.568 21.9542 137.552 22.4916 137.533C23.0187 137.513 23.498 137.498 23.9295 137.487C24.3519 137.465 24.7104 137.451 25.005 137.445L25.0144 137.367C23.0522 136.762 21.8791 136.399 21.4949 136.279L15.2452 134.213L15.5239 131.918L22.0901 131.377C22.4711 131.35 23.1364 131.315 24.0859 131.273C25.0367 131.221 25.5967 131.189 25.7659 131.178L25.7753 131.101C25.4507 131.009 24.868 130.838 24.0273 130.589C23.1763 130.339 22.5833 130.167 22.2483 130.074L15.9759 128.195L16.2716 125.76L28.419 130.068L28.1007 132.689L21.6371 133.164C19.5974 133.283 18.4457 133.348 18.1822 133.358L18.1728 133.436C18.6099 133.552 19.2482 133.739 20.0876 133.999C20.9167 134.257 21.3817 134.402 21.4826 134.436L27.6431 136.459L27.3248 139.08L14.4994 140.356Z" fill="white"/>
<path d="M26.8258 115.507L27.7865 112.19L24.6785 112.25C23.9602 112.259 23.0802 112.264 22.0385 112.266L22.0124 112.356C22.2794 112.52 22.6634 112.767 23.1644 113.096C23.6684 113.416 24.0253 113.644 24.2351 113.781L26.8258 115.507ZM30.3461 120.707L19.5166 112.886L20.2121 110.484L33.5456 109.661L32.8587 112.033L29.742 112.122L28.4466 116.595L31.0329 118.336L30.3461 120.707Z" fill="white"/>
<path d="M38.5812 97.744L27.2175 92.3519L28.2155 90.2485L39.5792 95.6407L38.5812 97.744Z" fill="white"/>
<path d="M45.0342 82.4905L41.321 72.2192L38.0103 77.0157L36.3643 75.8796L41.3171 68.7042L42.7445 69.6894L46.4231 79.9558L50.1332 74.5807L51.7663 75.7079L46.423 83.4491L45.0342 82.4905Z" fill="white"/>
<path d="M63.1705 45.6297L65.1192 44.1654L69.9077 48.6391C70.0787 48.7973 70.357 49.0637 70.7428 49.4383C71.1223 49.8046 71.4653 50.1397 71.7719 50.4436C72.0805 50.7329 72.339 50.9816 72.5476 51.1898L72.61 51.1428C71.6875 49.3083 71.1365 48.2109 70.957 47.8506L68.1171 41.9126L69.9658 40.5234L74.9042 44.8845C75.1878 45.1404 75.6736 45.5962 76.3617 46.2519C77.0582 46.9012 77.4689 47.2831 77.594 47.3976L77.6565 47.3507C77.4979 47.0529 77.2172 46.5146 76.8144 45.7358C76.4053 44.9487 76.1183 44.4021 75.9535 44.096L72.9637 38.2706L74.9248 36.7969L80.2326 48.542L78.1216 50.1283L73.3019 45.7953C71.8027 44.4071 70.9582 43.6215 70.7685 43.4383L70.706 43.4852C70.9252 43.8809 71.232 44.4712 71.6264 45.2562C72.0147 46.033 72.2317 46.4692 72.2776 46.565L75.0862 52.4093L72.9752 53.9956L63.1705 45.6297Z" fill="white"/>
<path d="M89.6298 37.3061L92.6874 35.7014L90.4914 33.5011C89.9875 32.9891 89.374 32.3582 88.651 31.6083L88.568 31.6519C88.6346 31.9581 88.7226 32.406 88.8321 32.9956C88.9508 33.5803 89.0335 33.9957 89.0803 34.2417L89.6298 37.3061ZM88.3179 43.4473L86.4571 30.2187L88.6707 29.0569L98.5006 38.103L96.3146 39.2503L94.091 37.0646L89.9681 39.2284L90.5038 42.3001L88.3179 43.4473Z" fill="white"/>
<path d="M110.584 33.4795L106.601 21.5487L108.809 20.8114L112.792 32.7422L110.584 33.4795Z" fill="white"/>
<path d="M126.055 27.5666L130.891 17.7735L125.138 18.7084L124.817 16.7343L133.423 15.3357L133.701 17.0476L128.845 26.8124L135.292 25.7647L135.61 27.7234L126.326 29.2323L126.055 27.5666Z" fill="white"/>
<path d="M165.202 15.1124L167.608 15.5034L167.699 22.0559C167.703 22.2888 167.704 22.6741 167.701 23.2118C167.7 23.7393 167.696 24.2188 167.689 24.6504C167.694 25.0734 167.694 25.4321 167.688 25.7267L167.765 25.7392C168.449 23.8031 168.859 22.6455 168.994 22.2665L171.31 16.1049L173.592 16.4759L173.868 23.0585C173.88 23.4403 173.888 24.1065 173.892 25.0569C173.906 26.009 173.915 26.5698 173.919 26.7393L173.996 26.7518C174.101 26.4312 174.295 25.8559 174.577 25.0259C174.862 24.1856 175.057 23.6 175.164 23.269L177.294 17.0774L179.715 17.4709L174.921 29.435L172.315 29.0114L172.101 22.5339C172.064 20.491 172.045 19.3377 172.046 19.074L171.969 19.0615C171.835 19.4936 171.622 20.1238 171.329 20.9521C171.038 21.7701 170.874 22.2289 170.837 22.3284L168.567 28.4024L165.961 27.9788L165.202 15.1124Z" fill="white"/>
<path d="M189.535 28.4292L192.81 29.5227L192.876 26.4148C192.896 25.6967 192.926 24.8172 192.966 23.7763L192.877 23.7467C192.702 24.0068 192.44 24.3806 192.091 24.8679C191.752 25.3586 191.509 25.706 191.364 25.9101L189.535 28.4292ZM184.197 31.7373L192.448 21.2315L194.82 22.0231L195.105 35.3789L192.763 34.5972L192.799 31.4794L188.383 30.0049L186.539 32.519L184.197 31.7373Z" fill="white"/>
<path d="M206.81 40.8906L212.656 29.7532L214.717 30.8351L208.872 41.9725L206.81 40.8906Z" fill="white"/>
<path d="M221.792 47.9522L232.204 44.6556L227.545 41.1544L228.747 39.5555L235.717 44.7933L234.675 46.1798L224.269 49.442L229.49 53.3656L228.298 54.952L220.778 49.3013L221.792 47.9522Z" fill="white"/>
<path d="M257.892 67.5582L259.277 69.5643L254.614 74.1688C254.449 74.3332 254.172 74.6007 253.782 74.971C253.401 75.3355 253.052 75.6647 252.736 75.9588C252.434 76.2555 252.176 76.5038 251.959 76.7038L252.004 76.7681C253.874 75.9202 254.992 75.4138 255.36 75.2489L261.407 72.6504L262.721 74.5536L258.164 79.3124C257.897 79.5855 257.422 80.0525 256.74 80.7137C256.063 81.3834 255.665 81.7785 255.545 81.8989L255.589 81.9632C255.893 81.8167 256.443 81.5579 257.237 81.1868C258.04 80.8097 258.598 80.545 258.91 80.3926L264.851 77.6398L266.245 79.6587L254.295 84.4892L252.795 82.316L257.319 77.6748C258.766 76.2327 259.585 75.4205 259.776 75.2383L259.732 75.174C259.328 75.377 258.725 75.6598 257.925 76.0223C257.133 76.379 256.689 76.5783 256.591 76.6203L250.638 79.1913L249.138 77.0181L257.892 67.5582Z" fill="white"/>
<path d="M265.143 94.3316L266.624 97.4514L268.911 95.3458C269.443 94.8629 270.098 94.2753 270.876 93.5831L270.836 93.4984C270.527 93.5526 270.076 93.6225 269.483 93.7081C268.894 93.8032 268.475 93.8691 268.227 93.9059L265.143 94.3316ZM259.06 92.7735L272.353 91.4469L273.425 93.7055L263.99 103.163L262.932 100.933L265.205 98.799L263.209 94.5923L260.118 95.0039L259.06 92.7735Z" fill="white"/>
<path d="M268.123 115.423L280.205 111.923L280.853 114.16L268.771 117.659L268.123 115.423Z" fill="white"/>
<path d="M273.409 131.119L282.999 136.345L282.296 130.559L284.282 130.318L285.333 138.974L283.611 139.183L274.05 133.937L274.837 140.421L272.867 140.66L271.733 131.323L273.409 131.119Z" fill="white"/>
<path d="M284.277 170.737L283.789 173.125L277.238 172.952C277.005 172.947 276.62 172.932 276.083 172.907C275.556 172.885 275.077 172.861 274.646 172.837C274.223 172.825 273.865 172.811 273.571 172.793L273.555 172.87C275.462 173.631 276.602 174.087 276.976 174.238L283.039 176.799L282.576 179.065L275.988 179.075C275.606 179.072 274.94 179.053 273.99 179.018C273.038 178.994 272.478 178.981 272.308 178.978L272.293 179.054C272.609 179.172 273.176 179.389 273.994 179.705C274.822 180.023 275.399 180.242 275.726 180.361L281.826 182.739L281.336 185.143L269.574 179.871L270.102 177.284L276.583 177.331C278.626 177.376 279.779 177.404 280.043 177.415L280.058 177.339C279.632 177.188 279.011 176.95 278.195 176.623C277.389 176.3 276.938 176.117 276.84 176.076L270.862 173.564L271.39 170.976L284.277 170.737Z" fill="white"/>
<path d="M269.99 194.513L268.766 197.742L271.869 197.932C272.585 197.981 273.463 198.047 274.501 198.129L274.535 198.041C274.282 197.856 273.919 197.579 273.446 197.21C272.969 196.851 272.632 196.595 272.434 196.442L269.99 194.513ZM266.9 189.046L277.065 197.714L276.178 200.052L262.822 199.799L263.697 197.491L266.811 197.652L268.462 193.298L266.024 191.355L266.9 189.046Z" fill="white"/>
<path d="M256.844 211.272L267.737 217.561L266.572 219.578L255.68 213.289L256.844 211.272Z" fill="white"/>
<path d="M249.185 225.957L252.059 236.494L255.745 231.979L257.294 233.244L251.78 239.998L250.437 238.901L247.596 228.372L243.466 233.431L241.928 232.176L247.877 224.89L249.185 225.957Z" fill="white"/>
<path d="M228.14 261.239L226.08 262.542L221.667 257.697C221.51 257.526 221.253 257.238 220.899 256.834C220.55 256.438 220.235 256.076 219.954 255.749C219.67 255.436 219.432 255.167 219.241 254.943L219.175 254.984C219.947 256.887 220.408 258.025 220.558 258.399L222.911 264.546L220.956 265.782L216.385 261.038C216.123 260.76 215.675 260.266 215.042 259.558C214.4 258.854 214.021 258.441 213.906 258.316L213.84 258.358C213.974 258.668 214.21 259.227 214.549 260.036C214.894 260.853 215.136 261.421 215.275 261.739L217.787 267.786L215.713 269.097L211.368 256.963L213.6 255.552L218.055 260.259C219.438 261.763 220.216 262.614 220.391 262.812L220.457 262.77C220.27 262.358 220.012 261.745 219.682 260.931C219.357 260.126 219.176 259.673 219.138 259.574L216.809 253.523L219.041 252.111L228.14 261.239Z" fill="white"/>
<path d="M201.097 267.407L197.92 268.76L199.932 271.13C200.393 271.681 200.954 272.359 201.614 273.165L201.701 273.128C201.659 272.817 201.607 272.364 201.546 271.767C201.474 271.175 201.425 270.754 201.398 270.505L201.097 267.407ZM202.899 261.391L203.689 274.726L201.389 275.706L192.319 265.898L194.591 264.931L196.631 267.288L200.915 265.463L200.628 262.358L202.899 261.391Z" fill="white"/>
<path d="M179.903 269.535L182.913 281.747L180.653 282.305L177.643 270.092L179.903 269.535Z" fill="white"/>
<path d="M164.007 274.183L158.399 283.556L164.208 283.087L164.369 285.08L155.678 285.782L155.539 284.053L161.165 274.711L154.655 275.236L154.495 273.258L163.871 272.501L164.007 274.183Z" fill="white"/>
</svg>
