<svg width="244" height="245" viewBox="0 0 244 245" fill="none" xmlns="http://www.w3.org/2000/svg">
<path d="M119.006 94.5635C111.838 111.671 105.139 117.56 89.9722 123.598C109.37 126.981 113.06 135.751 119.006 152.632C123.425 133.842 129.823 127.565 148.041 123.598C129.701 116.935 122.948 110.368 119.006 94.5635Z" fill="#C7ACFB"/>
<path d="M109.302 234.475L111.048 234.587C111.119 235.096 111.272 235.549 111.505 235.946C111.734 236.342 112.024 236.681 112.373 236.963C112.718 237.249 113.106 237.472 113.539 237.631C113.972 237.791 114.428 237.886 114.906 237.917C115.779 237.973 116.584 237.803 117.321 237.408C118.054 237.012 118.656 236.398 119.129 235.566C119.597 234.733 119.871 233.693 119.951 232.445C120.032 231.196 119.893 230.129 119.535 229.244C119.172 228.358 118.653 227.672 117.978 227.186C117.297 226.699 116.521 226.428 115.648 226.372C115.169 226.341 114.705 226.377 114.255 226.48C113.805 226.583 113.392 226.752 113.014 226.987C112.631 227.226 112.3 227.528 112.022 227.892C111.74 228.26 111.531 228.69 111.395 229.181L109.65 229.069C109.828 228.34 110.11 227.696 110.495 227.136C110.879 226.577 111.343 226.109 111.885 225.734C112.428 225.364 113.027 225.093 113.683 224.924C114.335 224.753 115.025 224.692 115.752 224.738C116.982 224.817 118.056 225.188 118.975 225.85C119.894 226.512 120.593 227.415 121.071 228.558C121.549 229.701 121.739 231.032 121.641 232.553C121.543 234.074 121.185 235.37 120.564 236.443C119.944 237.515 119.136 238.321 118.14 238.86C117.144 239.399 116.031 239.629 114.801 239.55C114.074 239.504 113.398 239.354 112.773 239.102C112.144 238.85 111.584 238.503 111.094 238.061C110.604 237.624 110.203 237.104 109.893 236.5C109.583 235.9 109.386 235.225 109.302 234.475Z" fill="#23A67A"/>
<path d="M93.3377 228.838C93.629 227.343 94.1508 226.103 94.9031 225.118C95.6554 224.134 96.5599 223.438 97.6167 223.031C98.6735 222.623 99.8066 222.537 101.016 222.773C102.226 223.008 103.244 223.513 104.07 224.288C104.897 225.062 105.474 226.046 105.802 227.241C106.13 228.436 106.148 229.781 105.857 231.276C105.566 232.772 105.044 234.012 104.292 234.996C103.539 235.981 102.635 236.676 101.578 237.084C100.521 237.491 99.3882 237.577 98.1788 237.342C96.9693 237.106 95.9512 236.601 95.1246 235.827C94.298 235.053 93.7207 234.068 93.3927 232.874C93.0648 231.679 93.0465 230.334 93.3377 228.838ZM94.9996 229.162C94.7605 230.39 94.7641 231.466 95.0104 232.391C95.2521 233.315 95.6792 234.062 96.2918 234.631C96.8997 235.2 97.633 235.568 98.4916 235.735C99.3503 235.903 100.17 235.837 100.952 235.539C101.729 235.24 102.405 234.708 102.98 233.943C103.551 233.178 103.956 232.181 104.195 230.953C104.434 229.725 104.433 228.649 104.191 227.725C103.945 226.8 103.518 226.054 102.91 225.485C102.297 224.915 101.562 224.547 100.703 224.379C99.8446 224.212 99.0268 224.278 98.2498 224.577C97.4683 224.875 96.7921 225.407 96.2214 226.173C95.646 226.938 95.2387 227.934 94.9996 229.162Z" fill="#23A67A"/>
<path d="M78.7311 231.513L83.2836 217.801L84.8905 218.335L88.7877 231.581L88.9216 231.626L92.4961 220.86L94.1565 221.411L89.6039 235.123L87.9971 234.589L84.0819 221.307L83.948 221.263L80.3647 232.055L78.7311 231.513Z" fill="#23A67A"/>
<path d="M77.0324 229.11L76.359 230.508L66.5964 225.807L67.2698 224.408L71.363 226.38L76.9582 214.761L78.5344 215.52L72.9392 227.139L77.0324 229.11Z" fill="#23A67A"/>
<path d="M68.1749 209.999L69.7121 210.999L57.3843 220.214L55.8708 219.228L59.3064 204.226L60.8436 205.227L57.8272 217.775L57.9218 217.836L68.1749 209.999ZM64.5285 214.359L58.3324 210.326L59.1791 209.025L65.3752 213.058L64.5285 214.359Z" fill="#23A67A"/>
<path d="M44.5897 204.556L45.9219 205.69C45.6745 206.14 45.5258 206.594 45.4758 207.052C45.4222 207.507 45.4513 207.951 45.5629 208.386C45.668 208.821 45.8461 209.232 46.0974 209.619C46.3486 210.006 46.6569 210.355 47.0222 210.666C47.6882 211.233 48.4349 211.578 49.2623 211.702C50.086 211.823 50.9362 211.691 51.8128 211.307C52.6858 210.92 53.5278 210.25 54.3387 209.298C55.1497 208.345 55.6765 207.407 55.9193 206.483C56.1585 205.557 56.1527 204.696 55.9022 203.902C55.648 203.106 55.1879 202.424 54.5218 201.856C54.1565 201.545 53.7629 201.297 53.3409 201.111C52.9189 200.924 52.4862 200.812 52.0428 200.774C51.5927 200.737 51.1476 200.781 50.7072 200.907C50.2603 201.033 49.8359 201.252 49.4339 201.564L48.1018 200.43C48.6807 199.954 49.2916 199.606 49.9347 199.387C50.5777 199.169 51.2288 199.072 51.8879 199.095C52.544 199.123 53.186 199.265 53.8138 199.521C54.438 199.775 55.0276 200.138 55.5827 200.61C56.5209 201.409 57.1602 202.348 57.5005 203.429C57.8409 204.509 57.8608 205.65 57.5603 206.852C57.2598 208.054 56.6157 209.235 55.6279 210.395C54.6402 211.555 53.5771 212.38 52.4386 212.868C51.3001 213.357 50.1705 213.519 49.0498 213.356C47.929 213.192 46.8995 212.711 45.9612 211.912C45.4062 211.44 44.9537 210.915 44.6039 210.34C44.2505 209.761 44.0094 209.148 43.8807 208.501C43.749 207.858 43.7396 207.201 43.8527 206.532C43.9626 205.866 44.2083 205.207 44.5897 204.556Z" fill="#23A67A"/>
<path d="M40.1478 204.412L38.9989 205.455L31.714 197.434L32.8629 196.391L35.9173 199.754L45.4636 191.084L46.6398 192.379L37.0935 201.049L40.1478 204.412Z" fill="#23A67A"/>
<path d="M16.3398 173.588L15.5305 172.037L24.0117 167.613C24.8873 167.156 25.7768 166.954 26.6802 167.008C27.5772 167.06 28.4184 167.356 29.2039 167.896C29.9853 168.438 30.638 169.211 31.1623 170.216C31.6866 171.221 31.9474 172.199 31.9448 173.15C31.9381 174.103 31.7005 174.964 31.232 175.733C30.7572 176.501 30.082 177.113 29.2063 177.57L20.7252 181.995L19.916 180.443L28.272 176.084C28.8975 175.758 29.3823 175.33 29.7266 174.8C30.0667 174.273 30.2438 173.682 30.2578 173.027C30.2654 172.371 30.0832 171.686 29.7113 170.973C29.3393 170.26 28.8819 169.719 28.3391 169.349C27.7922 168.982 27.2062 168.789 26.5811 168.771C25.9497 168.75 25.3213 168.903 24.6958 169.229L16.3398 173.588Z" fill="#23A67A"/>
<path d="M14.1437 158.773C13.5021 159.099 13.0998 159.613 12.937 160.314C12.7742 161.016 12.8438 161.777 13.1459 162.598C13.3668 163.198 13.6572 163.687 14.0171 164.066C14.3753 164.44 14.7707 164.691 15.2031 164.817C15.6339 164.939 16.0656 164.921 16.4981 164.762C16.86 164.628 17.1395 164.428 17.3366 164.16C17.5276 163.889 17.6588 163.585 17.7302 163.248C17.7972 162.913 17.8307 162.575 17.8306 162.234C17.8261 161.895 17.8106 161.588 17.7842 161.312L17.6482 159.798C17.611 159.411 17.5944 158.971 17.5985 158.478C17.601 157.981 17.6704 157.482 17.8067 156.981C17.937 156.477 18.1726 156.014 18.5138 155.593C18.8549 155.172 19.3432 154.845 19.9788 154.611C20.7114 154.341 21.4441 154.289 22.1769 154.456C22.908 154.618 23.5827 155.001 24.201 155.605C24.8177 156.205 25.3177 157.026 25.701 158.067C26.0583 159.038 26.2111 159.937 26.1592 160.763C26.1057 161.584 25.8734 162.301 25.4623 162.914C25.0496 163.521 24.4823 163.988 23.7603 164.314L23.1365 162.619C23.6323 162.387 23.9926 162.059 24.2176 161.635C24.4366 161.209 24.5424 160.734 24.5352 160.21C24.5219 159.684 24.4162 159.152 24.218 158.613C23.9874 157.986 23.6788 157.461 23.2922 157.037C22.9012 156.615 22.469 156.325 21.9954 156.169C21.5175 156.014 21.0314 156.027 20.537 156.209C20.0868 156.375 19.7668 156.636 19.5769 156.991C19.387 157.347 19.2793 157.762 19.2538 158.238C19.2284 158.713 19.2371 159.213 19.2801 159.739L19.4174 161.583C19.5027 162.754 19.3766 163.752 19.039 164.578C18.7015 165.404 18.0759 165.985 17.1623 166.321C16.4031 166.601 15.6656 166.639 14.9496 166.437C14.2275 166.231 13.5815 165.838 13.0115 165.255C12.4355 164.671 11.9883 163.946 11.6699 163.081C11.3483 162.207 11.2191 161.372 11.2824 160.577C11.3412 159.784 11.5667 159.089 11.959 158.494C12.3497 157.894 12.883 157.457 13.559 157.184L14.1437 158.773Z" fill="#23A67A"/>
<path d="M12.18 129.546L13.7248 129.397L14.3317 135.688L12.7869 135.837L12.18 129.546Z" fill="#23A67A"/>
<path d="M11.3271 98.628L11.0479 100.355C10.5346 100.377 10.0693 100.485 9.65198 100.68C9.23538 100.87 8.87014 101.125 8.55624 101.446C8.23845 101.761 7.97928 102.127 7.77873 102.542C7.57818 102.957 7.43962 103.402 7.36306 103.875C7.22345 104.739 7.31518 105.557 7.63826 106.328C7.96208 107.095 8.5154 107.754 9.29822 108.305C10.0818 108.85 11.091 109.223 12.326 109.423C13.561 109.623 14.6363 109.587 15.552 109.316C16.4684 109.04 17.2011 108.589 17.7501 107.963C18.2999 107.333 18.6445 106.586 18.7842 105.722C18.8607 105.248 18.8693 104.783 18.8098 104.325C18.7504 103.868 18.6219 103.44 18.4243 103.041C18.2229 102.637 17.9544 102.279 17.6189 101.968C17.2795 101.651 16.8719 101.401 16.3963 101.22L16.6756 99.4927C17.3834 99.7405 17.9975 100.083 18.5176 100.519C19.0378 100.956 19.4585 101.462 19.7799 102.038C20.0966 102.614 20.308 103.236 20.4141 103.906C20.5209 104.571 20.5162 105.264 20.3998 105.983C20.2032 107.2 19.7311 108.233 18.9838 109.084C18.2364 109.935 17.2709 110.544 16.0874 110.91C14.9039 111.276 13.56 111.337 12.0558 111.094C10.5516 110.851 9.2955 110.369 8.28764 109.649C7.27978 108.929 6.55527 108.047 6.11413 107.004C5.67298 105.96 5.55074 104.831 5.74739 103.614C5.86374 102.895 6.07741 102.236 6.38841 101.638C6.70017 101.036 7.09929 100.512 7.58577 100.067C8.06761 99.6207 8.62415 99.2724 9.25539 99.0219C9.88199 98.7707 10.5726 98.6394 11.3271 98.628Z" fill="#23A67A"/>
<path d="M18.4695 83.279C19.9303 83.7126 21.1144 84.351 22.0219 85.1943C22.9294 86.0376 23.5352 87.0048 23.8393 88.0958C24.1434 89.1869 24.1202 90.323 23.7696 91.5043C23.419 92.6855 22.8187 93.6504 21.9686 94.3989C21.1185 95.1474 20.0832 95.6274 18.8626 95.8392C17.642 96.0509 16.3013 95.9399 14.8405 95.5064C13.3797 95.0728 12.1956 94.4344 11.2881 93.5911C10.3806 92.7478 9.77482 91.7806 9.47069 90.6896C9.16657 89.5985 9.1898 88.4624 9.54039 87.2811C9.89099 86.0999 10.4913 85.135 11.3414 84.3865C12.1915 83.638 13.2268 83.1579 14.4474 82.9462C15.668 82.7345 17.0087 82.8455 18.4695 83.279ZM17.9878 84.9021C16.7885 84.5462 15.7168 84.4464 14.7726 84.6028C13.8298 84.7547 13.0454 85.1081 12.4195 85.6631C11.795 86.2136 11.3583 86.9082 11.1094 87.7468C10.8605 88.5854 10.8469 89.408 11.0687 90.2146C11.2918 91.0167 11.7563 91.7408 12.4623 92.3869C13.1696 93.0285 14.1229 93.5273 15.3222 93.8833C16.5215 94.2392 17.5926 94.3413 18.5354 94.1894C19.4796 94.033 20.2639 93.6795 20.8885 93.129C21.5143 92.574 21.9517 91.8772 22.2006 91.0386C22.4495 90.2 22.4624 89.3797 22.2393 88.5776C22.0176 87.771 21.553 87.0469 20.8457 86.4052C20.1397 85.7591 19.1871 85.2581 17.9878 84.9021Z" fill="#23A67A"/>
<path d="M17.2098 68.4828L30.4209 74.331L29.7356 75.8791L16.176 78.4864L16.1189 78.6154L26.4917 83.2072L25.7835 84.8069L12.5724 78.9588L13.2578 77.4106L26.8546 74.7889L26.9117 74.6599L16.5131 70.0568L17.2098 68.4828Z" fill="#23A67A"/>
<path d="M19.7638 67.0234L18.4366 66.2188L24.0538 56.9528L25.381 57.7573L23.0259 61.6423L34.0535 68.3273L33.1466 69.8234L22.1189 63.1384L19.7638 67.0234Z" fill="#23A67A"/>
<path d="M39.6385 60.0403L38.4949 61.4743L30.5069 48.3188L31.6329 46.9068L46.2361 51.7671L45.0925 53.2012L32.892 48.9937L32.8217 49.082L39.6385 60.0403ZM35.6484 55.9921L40.2579 50.2119L41.4713 51.1796L36.8617 56.9597L35.6484 55.9921Z" fill="#23A67A"/>
<path d="M47.3211 37.0865L46.0643 38.3036C45.6399 38.0141 45.2023 37.8225 44.7515 37.7288C44.304 37.6318 43.8586 37.618 43.4151 37.6874C42.9717 37.7502 42.5455 37.888 42.1363 38.101C41.7271 38.3139 41.3502 38.5873 41.0056 38.921C40.3773 39.5295 39.9618 40.2396 39.7592 41.0512C39.56 41.8596 39.6094 42.7185 39.9075 43.6279C40.2089 44.5341 40.7948 45.4365 41.6651 46.3351C42.5354 47.2338 43.4185 47.8483 44.3146 48.1786C45.214 48.5057 46.0708 48.5826 46.8852 48.4094C47.7028 48.2329 48.4259 47.8404 49.0543 47.2319C49.3989 46.8981 49.6841 46.5302 49.9101 46.1281C50.1361 45.7259 50.2891 45.306 50.3693 44.8682C50.4496 44.4238 50.4485 43.9765 50.3659 43.5262C50.2834 43.0692 50.1059 42.6256 49.8334 42.1955L51.0902 40.9784C51.5093 41.6005 51.7967 42.242 51.9524 42.903C52.1081 43.5641 52.1424 44.2215 52.0555 44.8753C51.9652 45.5257 51.7623 46.1511 51.4467 46.7514C51.1344 47.3484 50.7165 47.9004 50.1928 48.4075C49.3077 49.2648 48.3111 49.8109 47.2032 50.0459C46.0952 50.2809 44.9575 50.1911 43.7901 49.7766C42.6226 49.3621 41.5089 48.6076 40.4488 47.513C39.3888 46.4184 38.6703 45.281 38.2934 44.1009C37.9166 42.9208 37.8633 41.7808 38.1337 40.6809C38.4041 39.5811 38.9819 38.6025 39.867 37.7453C40.3907 37.2382 40.9559 36.8381 41.5626 36.5452C42.1726 36.249 42.8058 36.0679 43.4621 36.0019C44.1151 35.9326 44.7694 35.9863 45.4251 36.1631C46.0776 36.3365 46.7096 36.6443 47.3211 37.0865Z" fill="#23A67A"/>
<path d="M47.8905 32.6802L46.9622 31.4364L55.6461 24.9555L56.5744 26.1993L52.9335 28.9165L60.6465 39.2513L59.2444 40.2977L51.5314 29.963L47.8905 32.6802Z" fill="#23A67A"/>
<path d="M80.8588 11.9432L82.4805 11.2866L86.0702 20.1535C86.4409 21.0689 86.556 21.9736 86.4156 22.8676C86.2779 23.7555 85.9027 24.5645 85.29 25.2945C84.6756 26.0202 83.8431 26.5957 82.7925 27.0211C81.7419 27.4464 80.7435 27.6121 79.7973 27.5183C78.8493 27.4201 78.0148 27.1009 77.2938 26.5607C76.5754 26.0143 76.0309 25.2834 75.6602 24.368L72.0705 15.5012L73.6921 14.8446L77.229 23.5807C77.4937 24.2346 77.8732 24.7583 78.3674 25.1519C78.8598 25.541 79.4311 25.774 80.0811 25.8508C80.7338 25.9214 81.4329 25.8058 82.1783 25.504C82.9238 25.2022 83.5063 24.7989 83.926 24.2942C84.344 23.785 84.5923 23.2202 84.6709 22.5998C84.7521 21.9733 84.6604 21.3331 84.3956 20.6792L80.8588 11.9432Z" fill="#23A67A"/>
<path d="M95.8149 11.1792C95.5517 10.5092 95.0788 10.0595 94.3963 9.83007C93.7138 9.60064 92.9495 9.59686 92.1033 9.81875C91.4846 9.98099 90.9695 10.223 90.558 10.5449C90.151 10.8655 89.8638 11.235 89.6964 11.6533C89.5335 12.0704 89.5105 12.5018 89.6274 12.9476C89.7252 13.3207 89.898 13.6181 90.1458 13.84C90.397 14.0562 90.6868 14.2159 91.0154 14.3194C91.3428 14.4183 91.6761 14.4841 92.0152 14.5167C92.3532 14.5447 92.6608 14.5589 92.938 14.5591L94.4576 14.5691C94.8465 14.5692 95.286 14.5949 95.776 14.6463C96.2705 14.6966 96.7606 14.8136 97.2464 14.9973C97.7355 15.1754 98.1734 15.4544 98.5599 15.8344C98.9464 16.2144 99.2255 16.7319 99.3973 17.387C99.5953 18.1422 99.5764 18.8764 99.3404 19.5898C99.1091 20.302 98.6629 20.9368 98.002 21.4942C97.3456 22.0504 96.4806 22.4693 95.407 22.7508C94.4062 23.0133 93.4972 23.079 92.6801 22.9481C91.8675 22.816 91.1762 22.5159 90.6062 22.0479C90.0407 21.5787 89.6305 20.9692 89.3755 20.2192L91.1224 19.7611C91.3062 20.2769 91.5982 20.6671 91.9982 20.9317C92.4016 21.1906 92.8641 21.3416 93.3859 21.3846C93.9111 21.422 94.4512 21.3678 95.0062 21.2223C95.6522 21.0529 96.2048 20.7962 96.6639 20.4521C97.1219 20.1035 97.4515 19.701 97.6528 19.2447C97.8528 18.7838 97.886 18.2987 97.7524 17.7891C97.6307 17.3251 97.4021 16.9815 97.0664 16.7584C96.7308 16.5352 96.3275 16.3882 95.8568 16.3171C95.386 16.2461 94.887 16.2068 94.3599 16.1991L92.5115 16.1588C91.3374 16.1312 90.3555 15.9097 89.5659 15.4944C88.7763 15.0792 88.2581 14.4007 88.0111 13.459C87.806 12.6765 87.8386 11.9387 88.1089 11.2454C88.3827 10.5465 88.8366 9.94123 89.4706 9.42975C90.1081 8.91253 90.8726 8.53702 91.7643 8.3032C92.665 8.067 93.508 8.01854 94.2933 8.15782C95.0774 8.29255 95.7469 8.58373 96.3019 9.03137C96.8614 9.47781 97.2449 10.0506 97.4526 10.7498L95.8149 11.1792Z" fill="#23A67A"/>
<path d="M125.098 12.0301V13.5821L118.777 13.5821V12.0301L125.098 12.0301Z" fill="#23A67A"/>
<path d="M155.952 14.1503L154.26 13.7065C154.287 13.1935 154.224 12.72 154.071 12.2859C153.922 11.853 153.702 11.4649 153.413 11.1216C153.13 10.775 152.791 10.4819 152.397 10.2424C152.002 10.0029 151.573 9.82232 151.109 9.70064C150.263 9.47876 149.44 9.49156 148.641 9.73905C147.847 9.98773 147.138 10.4752 146.515 11.2016C145.896 11.9291 145.428 12.8979 145.111 14.108C144.794 15.3181 144.726 16.3919 144.908 17.3293C145.095 18.268 145.473 19.0406 146.043 19.6472C146.618 20.255 147.328 20.6698 148.175 20.8917C148.639 21.0133 149.101 21.0666 149.562 21.0513C150.023 21.0361 150.462 20.9493 150.878 20.7909C151.299 20.6292 151.681 20.3963 152.023 20.0923C152.371 19.7849 152.659 19.4032 152.885 18.9472L154.578 19.391C154.263 20.0718 153.863 20.6501 153.379 21.1259C152.894 21.6017 152.35 21.9719 151.746 22.2365C151.143 22.4965 150.503 22.6471 149.826 22.6884C149.153 22.7309 148.465 22.6597 147.759 22.4748C146.568 22.1622 145.584 21.5931 144.809 20.7675C144.033 19.9418 143.52 18.9224 143.27 17.7092C143.019 16.496 143.087 15.1525 143.473 13.6785C143.86 12.2046 144.46 11.0006 145.274 10.0666C146.087 9.13253 147.035 8.49604 148.115 8.15711C149.196 7.81817 150.332 7.80497 151.524 8.11752C152.23 8.30243 152.865 8.57836 153.43 8.94531C153.999 9.31346 154.482 9.76103 154.879 10.288C155.277 10.8105 155.57 11.3979 155.759 12.0503C155.949 12.6981 156.013 13.3981 155.952 14.1503Z" fill="#23A67A"/>
<path d="M170.546 22.7348C169.974 24.1472 169.225 25.2646 168.298 26.0869C167.372 26.9092 166.351 27.4193 165.235 27.6173C164.12 27.8152 162.992 27.683 161.849 27.2206C160.707 26.7582 159.805 26.068 159.141 25.15C158.478 24.232 158.099 23.1553 158.006 21.92C157.912 20.6847 158.151 19.3609 158.723 17.9485C159.295 16.5361 160.044 15.4187 160.971 14.5964C161.897 13.7741 162.918 13.264 164.033 13.066C165.149 12.8681 166.277 13.0003 167.419 13.4627C168.562 13.9251 169.464 14.6153 170.128 15.5333C170.791 16.4513 171.17 17.528 171.263 18.7633C171.357 19.9986 171.117 21.3224 170.546 22.7348ZM168.976 22.0995C169.446 20.9399 169.648 19.8827 169.583 18.9279C169.522 17.9748 169.246 17.1601 168.753 16.4839C168.266 15.8094 167.616 15.308 166.805 14.9797C165.994 14.6514 165.177 14.559 164.353 14.7022C163.533 14.8473 162.768 15.2401 162.057 15.8808C161.35 16.5232 160.762 17.4243 160.293 18.5838C159.823 19.7434 159.619 20.7997 159.679 21.7528C159.744 22.7076 160.021 23.5223 160.509 24.1968C161.001 24.873 161.653 25.3753 162.464 25.7036C163.274 26.0318 164.09 26.1235 164.91 25.9784C165.734 25.8351 166.499 25.4423 167.206 24.7998C167.917 24.1592 168.507 23.259 168.976 22.0995Z" fill="#23A67A"/>
<path d="M185.395 22.9008L178.306 35.4893L176.83 34.6585L175.537 20.9112L175.414 20.842L169.848 30.7259L168.323 29.8674L175.413 17.2789L176.888 18.1097L178.192 31.8954L178.315 31.9647L183.896 22.0562L185.395 22.9008Z" fill="#23A67A"/>
<path d="M186.602 25.5835L187.53 24.3397L196.214 30.8207L195.286 32.0645L191.645 29.3472L183.932 39.6819L182.53 38.6355L190.243 28.3008L186.602 25.5835Z" fill="#23A67A"/>
<path d="M191.644 46.0367L190.327 44.7607L204.188 38.0728L205.486 39.3292L199.246 53.3982L197.928 52.1222L203.288 40.3822L203.206 40.3037L191.644 46.0367ZM196.057 42.4537L201.368 47.597L200.288 48.7119L194.977 43.5686L196.057 42.4537Z" fill="#23A67A"/>
<path d="M213.753 55.887L212.663 54.5191C212.992 54.1245 213.224 53.7073 213.361 53.2675C213.5 52.8315 213.557 52.3894 213.53 51.9413C213.51 51.494 213.414 51.0565 213.241 50.6287C213.069 50.201 212.833 49.7996 212.534 49.4245C211.988 48.7406 211.322 48.2589 210.533 47.9793C209.748 47.7034 208.888 47.6701 207.954 47.8795C207.023 48.0925 206.069 48.589 205.091 49.369C204.113 50.149 203.416 50.9691 203.001 51.8292C202.589 52.6931 202.43 53.5386 202.525 54.3658C202.622 55.1966 202.943 55.954 203.489 56.6379C203.788 57.013 204.126 57.3323 204.505 57.5958C204.884 57.8593 205.287 58.052 205.715 58.1739C206.15 58.2965 206.595 58.3383 207.051 58.2993C207.514 58.2611 207.972 58.1271 208.427 57.8971L209.518 59.265C208.858 59.6224 208.192 59.8468 207.519 59.9383C206.846 60.0298 206.188 60.0009 205.546 59.8516C204.907 59.6993 204.304 59.4372 203.737 59.0654C203.173 58.6973 202.663 58.2283 202.209 57.6584C201.441 56.695 200.993 55.6506 200.865 54.5252C200.738 53.3997 200.936 52.2759 201.461 51.1537C201.986 50.0315 202.844 48.9953 204.035 48.0453C205.226 47.0952 206.427 46.4893 207.638 46.2275C208.849 45.9657 209.989 46.0221 211.058 46.3969C212.127 46.7717 213.045 47.4407 213.813 48.4041C214.268 48.974 214.612 49.575 214.845 50.207C215.081 50.8427 215.201 51.4904 215.204 52.1499C215.21 52.8066 215.094 53.4527 214.855 54.0884C214.619 54.7212 214.252 55.3207 213.753 55.887Z" fill="#23A67A"/>
<path d="M218.087 56.8778L219.414 56.0732L225.031 65.3393L223.704 66.1439L221.349 62.2589L210.321 68.9439L209.414 67.4478L220.442 60.7628L218.087 56.8778Z" fill="#23A67A"/>
<path d="M235.559 91.6851L236.057 93.3623L226.887 96.0841C225.94 96.3651 225.028 96.3928 224.152 96.1673C223.281 95.9449 222.512 95.4937 221.844 94.8138C221.181 94.1325 220.688 93.2486 220.366 92.162C220.043 91.0755 219.974 90.0658 220.158 89.1329C220.347 88.1988 220.745 87.3988 221.352 86.733C221.965 86.0703 222.744 85.5985 223.691 85.3175L232.862 82.5957L233.36 84.2729L224.324 86.9546C223.648 87.1553 223.09 87.4827 222.651 87.9368C222.216 88.3896 221.93 88.9359 221.791 89.5756C221.658 90.2185 221.706 90.9254 221.935 91.6964C222.163 92.4673 222.509 93.086 222.971 93.5522C223.438 94.0171 223.976 94.3185 224.586 94.4563C225.202 94.5973 225.848 94.5675 226.524 94.3667L235.559 91.6851Z" fill="#23A67A"/>
<path d="M234.885 106.646C235.577 106.448 236.07 106.02 236.364 105.363C236.658 104.706 236.735 103.945 236.595 103.082C236.493 102.45 236.302 101.914 236.021 101.474C235.741 101.038 235.4 100.717 235 100.51C234.601 100.308 234.173 100.243 233.718 100.317C233.338 100.378 233.025 100.522 232.78 100.747C232.541 100.976 232.354 101.25 232.22 101.567C232.09 101.883 231.992 102.209 231.927 102.543C231.867 102.877 231.823 103.182 231.796 103.457L231.641 104.969C231.603 105.356 231.535 105.791 231.437 106.274C231.34 106.761 231.176 107.238 230.947 107.704C230.722 108.174 230.403 108.583 229.987 108.931C229.572 109.279 229.03 109.507 228.361 109.615C227.591 109.74 226.862 109.651 226.174 109.347C225.488 109.048 224.899 108.543 224.407 107.832C223.917 107.125 223.583 106.224 223.406 105.128C223.24 104.107 223.262 103.196 223.471 102.395C223.681 101.599 224.046 100.94 224.566 100.417C225.088 99.8995 225.734 99.5497 226.505 99.3678L226.793 101.151C226.262 101.284 225.845 101.537 225.544 101.91C225.247 102.287 225.052 102.733 224.96 103.248C224.872 103.767 224.874 104.31 224.966 104.876C225.072 105.535 225.275 106.11 225.573 106.6C225.876 107.09 226.245 107.456 226.68 107.7C227.119 107.944 227.599 108.023 228.119 107.939C228.593 107.863 228.957 107.668 229.211 107.356C229.465 107.043 229.65 106.656 229.766 106.194C229.882 105.732 229.969 105.239 230.028 104.715L230.245 102.879C230.385 101.713 230.7 100.757 231.189 100.011C231.678 99.265 232.404 98.8143 233.365 98.6589C234.163 98.5298 234.895 98.6331 235.559 98.9688C236.228 99.3084 236.787 99.8184 237.235 100.499C237.689 101.183 237.989 101.98 238.136 102.89C238.285 103.809 238.252 104.653 238.038 105.421C237.829 106.189 237.475 106.827 236.976 107.336C236.478 107.851 235.871 108.177 235.155 108.317L234.885 106.646Z" fill="#23A67A"/>
<path d="M231.227 135.711L229.683 135.562L230.29 129.27L231.834 129.419L231.227 135.711Z" fill="#23A67A"/>
<path d="M226.153 166.22L226.757 164.578C227.265 164.655 227.742 164.638 228.189 164.526C228.634 164.42 229.042 164.239 229.411 163.984C229.783 163.735 230.108 163.426 230.384 163.056C230.66 162.687 230.881 162.277 231.047 161.827C231.349 161.006 231.415 160.186 231.246 159.367C231.074 158.552 230.657 157.8 229.994 157.11C229.329 156.424 228.41 155.865 227.236 155.433C226.062 155.001 225 154.831 224.049 154.922C223.097 155.017 222.291 155.32 221.633 155.829C220.973 156.343 220.491 157.01 220.189 157.831C220.024 158.282 219.926 158.737 219.897 159.197C219.868 159.658 219.912 160.102 220.03 160.532C220.151 160.967 220.346 161.369 220.615 161.739C220.888 162.115 221.24 162.438 221.673 162.707L221.068 164.349C220.421 163.97 219.884 163.517 219.456 162.989C219.029 162.461 218.713 161.884 218.508 161.257C218.307 160.632 218.218 159.98 218.242 159.302C218.265 158.629 218.402 157.95 218.653 157.266C219.079 156.11 219.74 155.185 220.636 154.493C221.532 153.8 222.596 153.388 223.828 153.255C225.06 153.121 226.391 153.318 227.821 153.844C229.251 154.371 230.391 155.084 231.243 155.983C232.095 156.883 232.637 157.887 232.871 158.995C233.104 160.104 233.008 161.236 232.583 162.392C232.331 163.076 231.995 163.682 231.576 164.209C231.155 164.741 230.663 165.179 230.1 165.523C229.542 165.869 228.929 166.104 228.262 166.229C227.599 166.356 226.896 166.353 226.153 166.22Z" fill="#23A67A"/>
<path d="M216.207 179.922C214.856 179.217 213.816 178.364 213.086 177.363C212.357 176.362 211.947 175.296 211.857 174.167C211.767 173.038 212.007 171.928 212.577 170.835C213.147 169.743 213.921 168.91 214.898 168.338C215.876 167.766 216.984 167.493 218.222 167.518C219.461 167.544 220.756 167.909 222.107 168.614C223.458 169.318 224.498 170.171 225.227 171.173C225.957 172.174 226.367 173.239 226.457 174.368C226.547 175.497 226.307 176.608 225.737 177.7C225.167 178.793 224.393 179.625 223.416 180.197C222.438 180.77 221.33 181.043 220.092 181.017C218.853 180.992 217.558 180.627 216.207 179.922ZM216.99 178.421C218.099 178.999 219.132 179.302 220.089 179.329C221.044 179.36 221.881 179.163 222.601 178.738C223.32 178.317 223.881 177.719 224.286 176.943C224.69 176.168 224.861 175.363 224.797 174.529C224.732 173.699 224.414 172.899 223.845 172.13C223.273 171.365 222.433 170.693 221.324 170.115C220.214 169.536 219.183 169.231 218.228 169.2C217.271 169.173 216.434 169.37 215.716 169.791C214.995 170.216 214.433 170.817 214.028 171.592C213.624 172.368 213.454 173.17 213.52 174C213.583 174.834 213.901 175.634 214.472 176.399C215.042 177.168 215.881 177.842 216.99 178.421Z" fill="#23A67A"/>
<path d="M214.617 194.686L202.768 186.42L203.736 185.031L217.544 185.064L217.625 184.948L208.321 178.459L209.322 177.024L221.172 185.289L220.203 186.678L206.356 186.652L206.275 186.768L215.602 193.274L214.617 194.686Z" fill="#23A67A"/>
<path d="M211.83 195.63L212.979 196.673L205.694 204.695L204.545 203.652L207.599 200.288L198.053 191.619L199.229 190.323L208.775 198.993L211.83 195.63Z" fill="#23A67A"/>
<path d="M190.988 198.684L192.385 197.495L197.71 211.935L196.335 213.106L182.93 205.543L184.327 204.354L195.498 210.816L195.584 210.743L190.988 198.684ZM194.131 203.42L188.501 208.213L187.495 207.031L193.125 202.239L194.131 203.42Z" fill="#23A67A"/>
<path d="M179.059 219.745L180.525 218.791C180.886 219.156 181.279 219.428 181.704 219.606C182.125 219.787 182.559 219.885 183.008 219.902C183.455 219.925 183.9 219.871 184.342 219.741C184.784 219.61 185.207 219.414 185.609 219.152C186.342 218.675 186.885 218.057 187.239 217.299C187.589 216.544 187.705 215.691 187.586 214.742C187.464 213.795 187.061 212.797 186.379 211.748C185.696 210.7 184.947 209.928 184.13 209.432C183.31 208.939 182.484 208.7 181.651 208.714C180.815 208.731 180.03 208.978 179.297 209.456C178.895 209.717 178.545 210.024 178.246 210.376C177.947 210.727 177.717 211.11 177.554 211.524C177.391 211.945 177.306 212.385 177.301 212.842C177.295 213.307 177.384 213.776 177.569 214.25L176.103 215.205C175.811 214.514 175.651 213.829 175.625 213.151C175.598 212.472 175.69 211.82 175.901 211.195C176.114 210.574 176.432 209.999 176.857 209.47C177.277 208.944 177.793 208.482 178.404 208.084C179.437 207.412 180.519 207.066 181.652 207.047C182.784 207.029 183.884 207.334 184.951 207.964C186.017 208.594 186.966 209.548 187.798 210.825C188.629 212.102 189.117 213.356 189.261 214.586C189.405 215.816 189.24 216.945 188.764 217.973C188.288 219.001 187.534 219.851 186.501 220.523C185.89 220.921 185.259 221.206 184.608 221.377C183.952 221.551 183.296 221.608 182.639 221.547C181.985 221.491 181.353 221.313 180.743 221.014C180.136 220.719 179.575 220.296 179.059 219.745Z" fill="#23A67A"/>
<path d="M177.657 223.962L178.331 225.36L168.568 230.062L167.894 228.663L171.988 226.692L166.392 215.074L167.969 214.314L173.564 225.933L177.657 223.962Z" fill="#23A67A"/>
<path d="M141.334 238.015L139.616 238.349L137.788 228.96C137.599 227.99 137.659 227.08 137.968 226.23C138.273 225.384 138.796 224.662 139.536 224.063C140.278 223.468 141.205 223.062 142.318 222.845C143.43 222.629 144.442 222.657 145.353 222.93C146.265 223.207 147.023 223.68 147.627 224.348C148.228 225.022 148.623 225.843 148.812 226.813L150.64 236.202L148.923 236.537L147.121 227.286C146.986 226.593 146.714 226.007 146.304 225.526C145.895 225.05 145.379 224.712 144.756 224.512C144.128 224.318 143.42 224.298 142.631 224.452C141.841 224.606 141.192 224.89 140.684 225.305C140.176 225.725 139.825 226.232 139.629 226.826C139.43 227.425 139.397 228.071 139.532 228.764L141.334 238.015Z" fill="#23A67A"/>
<path d="M126.505 235.905C126.636 236.613 127.014 237.145 127.64 237.501C128.266 237.856 129.015 238.006 129.888 237.95C130.527 237.909 131.079 237.77 131.544 237.533C132.005 237.296 132.357 236.988 132.602 236.61C132.841 236.231 132.946 235.812 132.917 235.352C132.892 234.967 132.779 234.642 132.578 234.377C132.373 234.117 132.119 233.905 131.817 233.74C131.514 233.581 131.2 233.453 130.873 233.356C130.546 233.264 130.247 233.191 129.975 233.138L128.486 232.837C128.104 232.763 127.677 232.654 127.206 232.51C126.73 232.366 126.272 232.157 125.83 231.884C125.384 231.616 125.008 231.258 124.701 230.811C124.394 230.364 124.219 229.803 124.176 229.127C124.126 228.348 124.285 227.631 124.653 226.976C125.016 226.321 125.575 225.783 126.33 225.362C127.081 224.942 128.01 224.696 129.118 224.625C130.15 224.559 131.055 224.668 131.832 224.953C132.604 225.238 133.226 225.664 133.696 226.233C134.161 226.801 134.447 227.478 134.554 228.263L132.752 228.379C132.67 227.837 132.458 227.398 132.116 227.062C131.769 226.731 131.344 226.494 130.84 226.352C130.332 226.215 129.791 226.165 129.219 226.202C128.552 226.245 127.961 226.391 127.444 226.641C126.928 226.896 126.528 227.228 126.243 227.637C125.959 228.051 125.833 228.521 125.867 229.047C125.898 229.526 126.057 229.907 126.343 230.19C126.63 230.473 126.998 230.694 127.446 230.854C127.895 231.014 128.377 231.148 128.893 231.256L130.7 231.649C131.847 231.901 132.768 232.306 133.464 232.864C134.16 233.423 134.539 234.188 134.601 235.159C134.653 235.967 134.48 236.685 134.082 237.313C133.679 237.947 133.118 238.454 132.398 238.835C131.674 239.221 130.851 239.444 129.931 239.503C129.002 239.562 128.165 239.449 127.421 239.162C126.677 238.88 126.076 238.466 125.617 237.92C125.153 237.375 124.886 236.74 124.816 236.014L126.505 235.905Z" fill="#23A67A"/>
</svg>
