<svg width="83" height="159" viewBox="0 0 83 159" fill="none" xmlns="http://www.w3.org/2000/svg">
<path d="M31.5 79.5C31.5 101.332 29.6059 121.023 26.5761 135.192C25.0568 142.297 23.2795 147.879 21.3861 151.625C20.4374 153.501 19.5219 154.79 18.6976 155.579C17.884 156.357 17.3252 156.5 17 156.5C16.6748 156.5 16.116 156.357 15.3024 155.579C14.4781 154.79 13.5626 153.501 12.6139 151.625C10.7205 147.879 8.94319 142.297 7.42392 135.192C4.39411 121.023 2.5 101.332 2.5 79.5C2.5 57.668 4.39411 37.9766 7.42392 23.8078C8.94319 16.7029 10.7205 11.1207 12.6139 7.37546C13.5626 5.4989 14.4781 4.21013 15.3024 3.42138C16.116 2.64277 16.6748 2.5 17 2.5C17.3252 2.5 17.884 2.64277 18.6976 3.42138C19.5219 4.21013 20.4374 5.4989 21.3861 7.37546C23.2795 11.1207 25.0568 16.7029 26.5761 23.8078C29.6059 37.9766 31.5 57.668 31.5 79.5Z" stroke="#23A67A" stroke-width="5"/>
<path d="M46.5 79.5C46.5 101.332 44.6059 121.023 41.5761 135.192C40.0568 142.297 38.2795 147.879 36.3861 151.625C35.4374 153.501 34.5219 154.79 33.6976 155.579C32.884 156.357 32.3252 156.5 32 156.5C31.6748 156.5 31.116 156.357 30.3024 155.579C29.4781 154.79 28.5626 153.501 27.6139 151.625C25.7205 147.879 23.9432 142.297 22.4239 135.192C19.3941 121.023 17.5 101.332 17.5 79.5C17.5 57.668 19.3941 37.9766 22.4239 23.8078C23.9432 16.7029 25.7205 11.1207 27.6139 7.37546C28.5626 5.4989 29.4781 4.21013 30.3024 3.42138C31.116 2.64277 31.6748 2.5 32 2.5C32.3252 2.5 32.884 2.64277 33.6976 3.42138C34.5219 4.21013 35.4374 5.4989 36.3861 7.37546C38.2795 11.1207 40.0568 16.7029 41.5761 23.8078C44.6059 37.9766 46.5 57.668 46.5 79.5Z" stroke="#23A67A" stroke-width="5"/>
<path d="M64.5 79.5C64.5 101.332 62.6059 121.023 59.5761 135.192C58.0568 142.297 56.2795 147.879 54.3861 151.625C53.4374 153.501 52.5219 154.79 51.6976 155.579C50.884 156.357 50.3252 156.5 50 156.5C49.6748 156.5 49.116 156.357 48.3024 155.579C47.4781 154.79 46.5626 153.501 45.6139 151.625C43.7205 147.879 41.9432 142.297 40.4239 135.192C37.3941 121.023 35.5 101.332 35.5 79.5C35.5 57.668 37.3941 37.9766 40.4239 23.8078C41.9432 16.7029 43.7205 11.1207 45.6139 7.37546C46.5626 5.4989 47.4781 4.21013 48.3024 3.42138C49.116 2.64277 49.6748 2.5 50 2.5C50.3252 2.5 50.884 2.64277 51.6976 3.42138C52.5219 4.21013 53.4374 5.4989 54.3861 7.37546C56.2795 11.1207 58.0568 16.7029 59.5761 23.8078C62.6059 37.9766 64.5 57.668 64.5 79.5Z" stroke="#23A67A" stroke-width="5"/>
<path d="M80.5 79.5C80.5 101.332 78.6059 121.023 75.5761 135.192C74.0568 142.297 72.2795 147.879 70.3861 151.625C69.4374 153.501 68.5219 154.79 67.6976 155.579C66.884 156.357 66.3252 156.5 66 156.5C65.6748 156.5 65.116 156.357 64.3024 155.579C63.4781 154.79 62.5626 153.501 61.6139 151.625C59.7205 147.879 57.9432 142.297 56.4239 135.192C53.3941 121.023 51.5 101.332 51.5 79.5C51.5 57.668 53.3941 37.9766 56.4239 23.8078C57.9432 16.7029 59.7205 11.1207 61.6139 7.37546C62.5626 5.4989 63.4781 4.21013 64.3024 3.42138C65.116 2.64277 65.6748 2.5 66 2.5C66.3252 2.5 66.884 2.64277 67.6976 3.42138C68.5219 4.21013 69.4374 5.4989 70.3861 7.37546C72.2795 11.1207 74.0568 16.7029 75.5761 23.8078C78.6059 37.9766 80.5 57.668 80.5 79.5Z" stroke="#23A67A" stroke-width="5"/>
</svg>
