<svg width="3043" height="3938" viewBox="0 0 3043 3938" fill="none" xmlns="http://www.w3.org/2000/svg">
<circle cx="1521.5" cy="1762.95" r="1521.5" fill="#23A67A"/>
<path d="M963.106 975.954C993.51 975.954 1018.55 985.79 1038.22 1005.46C1059.68 1025.14 1070.42 1050.18 1070.42 1080.58V2387.08L1247.48 2561.46L1405.76 2389.76V1080.58C1405.76 1050.18 1415.6 1025.14 1435.27 1005.46C1456.73 985.79 1482.66 975.954 1513.07 975.954C1543.47 975.954 1568.51 985.79 1588.19 1005.46C1609.65 1025.14 1620.38 1050.18 1620.38 1080.58V2432.68C1620.38 2459.51 1610.54 2482.76 1590.87 2502.44L1330.64 2786.81C1309.18 2808.27 1284.14 2819 1255.53 2819H1252.84C1226.01 2819 1200.98 2809.16 1177.73 2789.49L887.989 2507.8C868.315 2488.13 858.479 2463.09 858.479 2432.68V1080.58C858.479 1050.18 868.315 1025.14 887.989 1005.46C907.662 985.79 932.701 975.954 963.106 975.954ZM1802.81 2510.48L1966.45 2381.71V1080.58C1966.45 1050.18 1976.29 1025.14 1995.96 1005.46C2017.42 985.79 2043.36 975.954 2073.76 975.954C2104.17 975.954 2129.21 985.79 2148.88 1005.46C2168.55 1025.14 2178.39 1050.18 2178.39 1080.58V2432.68C2178.39 2466.67 2164.98 2494.39 2138.15 2515.85L1936.94 2676.81C1919.06 2692.91 1896.7 2700.96 1869.87 2700.96C1837.68 2700.96 1809.96 2687.55 1786.71 2660.72C1768.82 2637.47 1760.78 2611.53 1762.56 2582.92C1766.14 2554.3 1779.55 2530.16 1802.81 2510.48ZM1631.11 2604.38C1661.51 2604.38 1686.55 2615.11 1706.23 2636.57C1727.69 2656.25 1738.42 2681.29 1738.42 2711.69C1738.42 2742.09 1727.69 2768.03 1706.23 2789.49C1686.55 2809.16 1661.51 2819 1631.11 2819C1600.7 2819 1575.67 2809.16 1555.99 2789.49C1536.32 2768.03 1526.48 2742.09 1526.48 2711.69C1526.48 2681.29 1536.32 2656.25 1555.99 2636.57C1575.67 2615.11 1600.7 2604.38 1631.11 2604.38Z" fill="white"/>
<circle cx="1634.56" cy="2707.66" r="113.059" fill="#C6ABFA"/>
</svg>
